<svg xmlns="http://www.w3.org/2000/svg"  viewBox="0 0 64 64" width="64px" height="64px"><linearGradient id="SVGID_1_" x1="32" x2="32" y1="21.128" y2="25.429" gradientUnits="userSpaceOnUse"><stop offset="0" stop-color="#6dc7ff"/><stop offset="1" stop-color="#e6abff"/></linearGradient><rect width="6" height="5" x="29" y="21" fill="url(#SVGID_1_)"/><linearGradient id="SVGID_2_" x1="32" x2="32" y1="10.702" y2="52.843" gradientUnits="userSpaceOnUse"><stop offset="0" stop-color="#1a6dff"/><stop offset="1" stop-color="#c822ff"/></linearGradient><path fill="url(#SVGID_2_)" d="M59,45h-2V16c0-2.8-2.2-5-5-5H12c-2.8,0-5,2.2-5,5v29H5c-1.1,0-2,0.9-2,2v1c0,2.8,2.2,5,5,5h48 c2.8,0,5-2.2,5-5v-1C61,45.9,60.1,45,59,45z M9,16c0-1.7,1.3-3,3-3h40c1.7,0,3,1.3,3,3v29H39.6c-0.8,0-1.4,0.4-1.8,1.1L37.4,47 l-10.8,0l-0.4-0.9c-0.3-0.7-1-1.1-1.8-1.1H9V16z M59,48c0,1.7-1.3,3-3,3H8c-1.7,0-3-1.3-3-3v-1l19.4,0l0.4,0.9 c0.3,0.7,1,1.1,1.8,1.1h10.8c0.8,0,1.5-0.4,1.8-1.1l0.4-0.9H59V48z"/><linearGradient id="SVGID_3_" x1="32" x2="32" y1="10.702" y2="52.843" gradientUnits="userSpaceOnUse"><stop offset="0" stop-color="#1a6dff"/><stop offset="1" stop-color="#c822ff"/></linearGradient><path fill="url(#SVGID_3_)" d="M53,18c0-1.7-1.3-3-3-3H14c-1.7,0-3,1.3-3,3v25h42V18z M51,41H13V18c0-0.6,0.4-1,1-1h36c0.6,0,1,0.4,1,1V41z"/><linearGradient id="SVGID_4_" x1="32" x2="32" y1="10.702" y2="52.843" gradientUnits="userSpaceOnUse"><stop offset="0" stop-color="#1a6dff"/><stop offset="1" stop-color="#c822ff"/></linearGradient><path fill="url(#SVGID_4_)" d="M39.9,20H24.1c-1.2,0-2.1,0.9-2.1,2.1v13.8c0,1.2,0.9,2.1,2.1,2.1h15.8c1.2,0,2.1-0.9,2.1-2.1V22.1 C42,20.9,41.1,20,39.9,20z M34,22v3h-4v-3H34z M40,35.9C40,36,40,36,40,35.9L24.1,36C24,36,24,36,24,35.9V22.1c0-0.1,0-0.1,0.1-0.1 H28v4c0,0.6,0.4,1,1,1h6c0.6,0,1-0.4,1-1v-4h3.9c0.1,0,0.1,0,0.1,0.1V35.9z"/><linearGradient id="SVGID_5_" x1="37" x2="37" y1="10.702" y2="52.843" gradientUnits="userSpaceOnUse"><stop offset="0" stop-color="#1a6dff"/><stop offset="1" stop-color="#c822ff"/></linearGradient><rect width="2" height="2" x="36" y="32" fill="url(#SVGID_5_)"/><linearGradient id="SVGID_6_" x1="33" x2="33" y1="10.702" y2="52.843" gradientUnits="userSpaceOnUse"><stop offset="0" stop-color="#1a6dff"/><stop offset="1" stop-color="#c822ff"/></linearGradient><rect width="2" height="2" x="32" y="32" fill="url(#SVGID_6_)"/></svg>