<svg xmlns="http://www.w3.org/2000/svg"  viewBox="0 0 64 64" width="64px" height="64px"><linearGradient id="SVGID_1_" x1="648" x2="648" y1="-753.781" y2="-749.045" gradientTransform="matrix(-1 0 0 1 678 772)" gradientUnits="userSpaceOnUse"><stop offset="0" stop-color="#8cc5fc"/><stop offset="1" stop-color="#d5a8fb"/></linearGradient><path fill="url(#SVGID_1_)" d="M31,23h-2v-5h2V23z"/><linearGradient id="SVGID_2_" x1="657" x2="657" y1="-753.844" y2="-748.99" gradientTransform="matrix(-1 0 0 1 678 772)" gradientUnits="userSpaceOnUse"><stop offset="0" stop-color="#8cc5fc"/><stop offset="1" stop-color="#d5a8fb"/></linearGradient><path fill="url(#SVGID_2_)" d="M22,23h-2v-5h2V23z"/><linearGradient id="SVGID_3_" x1="648" x2="648" y1="-743.875" y2="-739" gradientTransform="matrix(-1 0 0 1 678 772)" gradientUnits="userSpaceOnUse"><stop offset="0" stop-color="#8cc5fc"/><stop offset="1" stop-color="#d5a8fb"/></linearGradient><path fill="url(#SVGID_3_)" d="M31,33h-2v-5h2V33z"/><linearGradient id="SVGID_4_" x1="657" x2="657" y1="-744" y2="-738.962" gradientTransform="matrix(-1 0 0 1 678 772)" gradientUnits="userSpaceOnUse"><stop offset="0" stop-color="#8cc5fc"/><stop offset="1" stop-color="#d5a8fb"/></linearGradient><path fill="url(#SVGID_4_)" d="M22,33h-2v-5h2V33z"/><linearGradient id="SVGID_5_" x1="44.317" x2="44.317" y1="600.089" y2="597.325" gradientTransform="matrix(1 0 0 -1 0 654)" gradientUnits="userSpaceOnUse"><stop offset="0" stop-color="#6dc7ff"/><stop offset="1" stop-color="#e6abff"/></linearGradient><path fill="url(#SVGID_5_)" d="M32,54.4h24.6V56H32V54.4z"/><linearGradient id="SVGID_6_" x1="25.5" x2="25.5" y1="5.723" y2="54.757" gradientUnits="userSpaceOnUse"><stop offset="0" stop-color="#1a6dff"/><stop offset="1" stop-color="#c822ff"/></linearGradient><path fill="url(#SVGID_6_)" d="M18.1,25h14.8c1.1,0,2.1-0.9,2.1-2.1v-3.8c0-1.1-0.9-2.1-2.1-2.1H18.1C17,17,16,17.9,16,19.1v3.8 C16,24.1,16.9,25,18.1,25z M18,19.1L32.9,19c0,0,0.1,0,0.1,0.1v3.8c0,0,0,0.1-0.1,0.1H18.1c0,0-0.1,0-0.1-0.1V19.1z"/><linearGradient id="SVGID_7_" x1="25.5" x2="25.5" y1="5.723" y2="54.757" gradientUnits="userSpaceOnUse"><stop offset="0" stop-color="#1a6dff"/><stop offset="1" stop-color="#c822ff"/></linearGradient><path fill="url(#SVGID_7_)" d="M35,32.9v-3.8c0-1.1-0.9-2.1-2.1-2.1H18.1C17,27,16,27.9,16,29.1v3.8c0,1.1,0.9,2.1,2.1,2.1h14.8 C34.1,35,35,34.1,35,32.9z M33,32.9c0,0,0,0.1-0.1,0.1L18,32.9v-3.8c0,0,0-0.1,0.1-0.1h14.8c0,0,0.1,0,0.1,0.1V32.9z"/><linearGradient id="SVGID_8_" x1="32" x2="32" y1="5.723" y2="54.757" gradientUnits="userSpaceOnUse"><stop offset="0" stop-color="#1a6dff"/><stop offset="1" stop-color="#c822ff"/></linearGradient><path fill="url(#SVGID_8_)" d="M55,37H43v-3V14c1.1,0,2-0.9,2-2v-2c0-1.1-0.9-2-2-2H8c-1.1,0-2,0.9-2,2v2c0,1.1,0.9,2,2,2v38H6v2h25v1 c0,1.7,1.3,3,3,3h21c1.7,0,3-1.3,3-3V40C58,38.3,56.7,37,55,37z M8,10h35v2H8V10z M27,52h-5v-6h5V52z M27,44h-5v-2h5V44z M31,40v12 h-2V42c0-1.1-0.9-2-2-2h-5c-1.1,0-2,0.9-2,2v10H10v-2h8v-2h-8v-2h5v-2h-5V14h31v23h-7C32.3,37,31,38.3,31,40z M56,55 c0,0.6-0.4,1-1,1H34c-0.6,0-1-0.4-1-1v-0.2c0.3,0.1,0.6,0.2,1,0.2h21c0.4,0,0.7-0.1,1-0.2V55z M56,52c0,0.6-0.4,1-1,1H34 c-0.6,0-1-0.4-1-1V40c0-0.6,0.4-1,1-1h21c0.6,0,1,0.4,1,1V52z"/><linearGradient id="SVGID_9_" x1="44.5" x2="44.5" y1="5.723" y2="54.757" gradientUnits="userSpaceOnUse"><stop offset="0" stop-color="#1a6dff"/><stop offset="1" stop-color="#c822ff"/></linearGradient><rect width="17" height="2" x="36" y="41" fill="url(#SVGID_9_)"/><linearGradient id="SVGID_10_" x1="44.5" x2="44.5" y1="5.723" y2="54.757" gradientUnits="userSpaceOnUse"><stop offset="0" stop-color="#1a6dff"/><stop offset="1" stop-color="#c822ff"/></linearGradient><rect width="17" height="2" x="36" y="45" fill="url(#SVGID_10_)"/><linearGradient id="SVGID_11_" x1="41" x2="41" y1="5.723" y2="54.757" gradientUnits="userSpaceOnUse"><stop offset="0" stop-color="#1a6dff"/><stop offset="1" stop-color="#c822ff"/></linearGradient><rect width="10" height="2" x="36" y="49" fill="url(#SVGID_11_)"/></svg>