<svg xmlns="http://www.w3.org/2000/svg"  viewBox="0 0 64 64" width="64px" height="64px"><linearGradient id="H8OO8PtxGePfsPfNefQlRa" x1="50.471" x2="50.471" y1="12.494" y2="30.108" gradientUnits="userSpaceOnUse" spreadMethod="reflect"><stop offset="0" stop-color="#6dc7ff"/><stop offset="1" stop-color="#e6abff"/></linearGradient><path fill="url(#H8OO8PtxGePfsPfNefQlRa)" d="M44.631,22.581l8.094-8.102c0.932-0.933,2.444-0.933,3.376,0l0.211,0.211 c0.931,0.932,0.931,2.441,0,3.373l-8.094,8.102c-0.932,0.933-2.444,0.933-3.376,0l-0.211-0.211 C43.7,25.022,43.7,23.512,44.631,22.581z"/><linearGradient id="H8OO8PtxGePfsPfNefQlRb" x1="20.371" x2="20.371" y1="41.994" y2="58.002" gradientUnits="userSpaceOnUse" spreadMethod="reflect"><stop offset="0" stop-color="#6dc7ff"/><stop offset="1" stop-color="#e6abff"/></linearGradient><path fill="url(#H8OO8PtxGePfsPfNefQlRb)" d="M14.531,52.71l8.094-8.102c0.932-0.933,2.444-0.933,3.376,0l0.211,0.211 c0.931,0.932,0.931,2.441,0,3.373l-8.094,8.102c-0.932,0.933-2.444,0.933-3.376,0l-0.211-0.211 C13.6,55.151,13.6,53.642,14.531,52.71z"/><linearGradient id="H8OO8PtxGePfsPfNefQlRc" x1="32" x2="32" y1="3.994" y2="58.273" gradientUnits="userSpaceOnUse" spreadMethod="reflect"><stop offset="0" stop-color="#1a6dff"/><stop offset="1" stop-color="#c822ff"/></linearGradient><path fill="url(#H8OO8PtxGePfsPfNefQlRc)" d="M57.244,14.26l0.026-0.026l-5.031-5.036c-3.471-3.474-8.699-4.194-12.709-1.747 C26.11,15.635,15.613,26.142,7.438,39.573c-2.45,4.023-1.718,9.105,1.82,12.646l4.709,4.713L14.034,57c0,0,0.001,0,0.001,0 l0.253,0.255l0.025-0.024c0.6,0.485,1.333,0.762,2.116,0.762c0.905,0,1.755-0.352,2.396-0.992l8.094-8.102 c1.232-1.234,1.297-3.182,0.226-4.51l0.026-0.025l-0.31-0.31l-0.152-0.153c-0.001-0.001-0.002-0.001-0.003-0.002l-5.093-5.097 c-0.411-0.412-0.513-1.091-0.243-1.614c3.585-6.947,8.921-12.289,15.861-15.878c0.523-0.269,1.181-0.165,1.599,0.254l5.11,5.114 l0.193,0.194c0.002,0.002,0.005,0.003,0.007,0.005l0.248,0.249l0.024-0.024c0.6,0.485,1.334,0.763,2.116,0.763 c0.905,0,1.756-0.353,2.396-0.992l8.094-8.103C58.251,17.536,58.316,15.588,57.244,14.26z M25.504,47.485l-8.094,8.102 c-0.523,0.523-1.436,0.522-1.958,0.002l-0.203-0.203l-0.01-0.01c-0.54-0.54-0.54-1.419,0-1.959l8.094-8.102 c0.523-0.522,1.435-0.522,1.958-0.003l0.214,0.215C26.043,46.067,26.043,46.945,25.504,47.485z M36.313,19.532 c-7.316,3.784-12.941,9.415-16.72,16.737c-0.669,1.296-0.421,2.918,0.604,3.945l2.934,2.937c-0.448,0.159-0.867,0.403-1.214,0.75 l-8.094,8.102c-0.349,0.35-0.599,0.758-0.763,1.193l-2.388-2.39c-2.874-2.876-3.487-6.972-1.527-10.192 c8.006-13.151,18.285-23.44,31.425-31.455c3.22-1.962,7.436-1.365,10.253,1.454l2.407,2.409c-0.448,0.159-0.867,0.404-1.214,0.751 l-8.094,8.102c-0.349,0.349-0.599,0.758-0.763,1.192l-2.914-2.916C39.218,19.122,37.603,18.866,36.313,19.532z M55.604,17.355 l-8.094,8.103c-0.522,0.524-1.436,0.521-1.956,0.004l-0.217-0.217c-0.539-0.54-0.538-1.417,0.001-1.957l8.094-8.102 c0.524-0.525,1.436-0.525,1.961,0l0.03,0.03l0.18,0.181C56.144,15.937,56.144,16.815,55.604,17.355z"/></svg>