<svg xmlns="http://www.w3.org/2000/svg"  viewBox="0 0 64 64" width="64px" height="64px"><linearGradient id="gpSyi0PLIUGrhFef4F2C3a" x1="26.5" x2="26.5" y1="-874.563" y2="-882.358" gradientTransform="matrix(1 0 0 -1 0 -858)" gradientUnits="userSpaceOnUse"><stop offset="0" stop-color="#6dc7ff"/><stop offset="1" stop-color="#e6abff"/></linearGradient><path fill="url(#gpSyi0PLIUGrhFef4F2C3a)" d="M26.5,17c-1.933,0-3.5,1.567-3.5,3.5s1.567,3.5,3.5,3.5s3.5-1.567,3.5-3.5S28.433,17,26.5,17z"/><linearGradient id="gpSyi0PLIUGrhFef4F2C3b" x1="12" x2="12" y1="-863.813" y2="-876.568" gradientTransform="matrix(1 0 0 -1 0 -858)" gradientUnits="userSpaceOnUse"><stop offset="0" stop-color="#6dc7ff"/><stop offset="1" stop-color="#e6abff"/></linearGradient><path fill="url(#gpSyi0PLIUGrhFef4F2C3b)" d="M16.875,10.5h-0.157c-0.405,0-0.608-0.488-0.323-0.772l0.112-0.113	c0.443-0.443,0.443-1.155,0-1.59l-0.532-0.532c-0.435-0.443-1.148-0.443-1.59,0l-0.112,0.113C13.987,7.89,13.5,7.688,13.5,7.282	V7.125C13.5,6.502,12.997,6,12.375,6h-0.75C11.003,6,10.5,6.502,10.5,7.125v0.157c0,0.405-0.487,0.608-0.773,0.323L9.615,7.492	c-0.443-0.443-1.155-0.443-1.59,0L7.492,8.025c-0.443,0.435-0.443,1.147,0,1.59l0.112,0.113C7.89,10.012,7.687,10.5,7.282,10.5	H7.125C6.503,10.5,6,11.002,6,11.625v0.75C6,12.997,6.503,13.5,7.125,13.5h0.158c0.405,0,0.608,0.488,0.323,0.772l-0.113,0.113	c-0.443,0.443-0.443,1.155,0,1.59l0.533,0.532c0.435,0.443,1.148,0.443,1.59,0l0.112-0.113c0.285-0.285,0.773-0.083,0.773,0.323	v0.157c0,0.623,0.503,1.125,1.125,1.125h0.75c0.622,0,1.125-0.502,1.125-1.125v-0.157c0-0.405,0.487-0.608,0.773-0.323l0.112,0.113	c0.443,0.443,1.155,0.443,1.59,0l0.533-0.532c0.442-0.435,0.442-1.147,0-1.59l-0.113-0.113c-0.285-0.285-0.082-0.772,0.323-0.772	h0.157c0.622,0,1.125-0.502,1.125-1.125v-0.75C18,11.002,17.497,10.5,16.875,10.5z M12,14.25c-1.245,0-2.25-1.005-2.25-2.25	S10.755,9.75,12,9.75s2.25,1.005,2.25,2.25S13.245,14.25,12,14.25z"/><linearGradient id="gpSyi0PLIUGrhFef4F2C3c" x1="20.5" x2="20.5" y1="13" y2="56.026" gradientUnits="userSpaceOnUse"><stop offset="0" stop-color="#1a6dff"/><stop offset="1" stop-color="#c822ff"/></linearGradient><path fill="url(#gpSyi0PLIUGrhFef4F2C3c)" d="M24,46v-4h-3.003C19.343,42,18,40.645,18,38.979V35c0-0.561,0.428-1,0.977-1h2.042 C21.559,34,22,34.439,22,34.979V36h2v-1.021C24,33.337,22.661,32,21.019,32H20v-2h-2v2.18c-1,0.41-2,1.513-2,2.82v3.979 c0,1.634,1,3.073,2,3.991V49h-1.003C15.343,49,14,47.654,14,46V28h-2v18c0,2.757,2.241,5,4.997,5H18v7h2V43.898 C20,43.965,20.655,44,20.997,44H22v2c0,3.859,3,7,7,7v-2C26,51,24,48.757,24,46z"/><linearGradient id="gpSyi0PLIUGrhFef4F2C3d" x1="41" x2="41" y1="13" y2="56.026" gradientUnits="userSpaceOnUse"><stop offset="0" stop-color="#1a6dff"/><stop offset="1" stop-color="#c822ff"/></linearGradient><polygon fill="url(#gpSyi0PLIUGrhFef4F2C3d)" points="43,36 43,31 44,31 44,29 42.997,29 40.997,29 38,29 38,31 41,31 41,36"/><linearGradient id="gpSyi0PLIUGrhFef4F2C3e" x1="44.002" x2="44.002" y1="13" y2="56.026" gradientUnits="userSpaceOnUse"><stop offset="0" stop-color="#1a6dff"/><stop offset="1" stop-color="#c822ff"/></linearGradient><path fill="url(#gpSyi0PLIUGrhFef4F2C3e)" d="M52.219,35.781L48,30.642V26c0-7.168-6-13-13-13v2c6,0,11,4.935,11,11v5.358l4.726,5.751 c0.428,0.445,0.24,0.999,0.171,1.158C50.824,38.439,50.531,39,49.827,39H46v6h-4.003C41.446,45,41,44.552,41,44v-1h-2v1 c0,1.654,1.343,3,2.997,3H46v1c0,1.654-1.348,3-3.003,3h-5C36.343,51,35,52.346,35,54v4h2v-4c0-0.552,0.446-1,0.997-1h5 C45.754,53,48,50.757,48,48v-1v-1v-5h1.827c1.283,0,2.4-0.747,2.912-1.949C53.235,37.882,53.017,36.606,52.219,35.781z"/><linearGradient id="gpSyi0PLIUGrhFef4F2C3f" x1="26.5" x2="26.5" y1="13" y2="56.026" gradientUnits="userSpaceOnUse"><stop offset="0" stop-color="#1a6dff"/><stop offset="1" stop-color="#c822ff"/></linearGradient><path fill="url(#gpSyi0PLIUGrhFef4F2C3f)" d="M35,21.077v-1.154c0-1.018-0.71-1.873-1.661-2.097c-0.036-0.092-0.073-0.182-0.112-0.271 c0.514-0.83,0.411-1.937-0.308-2.657l-0.815-0.815c-0.695-0.695-1.846-0.814-2.658-0.31c-0.089-0.039-0.18-0.076-0.271-0.111 C28.951,12.71,28.095,12,27.077,12h-1.154c-1.018,0-1.874,0.71-2.097,1.661c-0.091,0.035-0.182,0.073-0.271,0.112 c-0.813-0.506-1.964-0.387-2.657,0.309l-0.817,0.816c-0.719,0.72-0.821,1.826-0.307,2.656c-0.039,0.09-0.077,0.18-0.112,0.271 C18.71,18.05,18,18.905,18,19.923v1.154c0,1.018,0.71,1.873,1.661,2.097c0.036,0.092,0.073,0.182,0.112,0.271 c-0.514,0.83-0.411,1.937,0.308,2.657l0.815,0.815c0.695,0.695,1.846,0.813,2.658,0.31c0.089,0.039,0.18,0.076,0.271,0.111 C24.049,28.29,24.905,29,25.923,29h1.154c1.018,0,1.874-0.71,2.097-1.661c0.091-0.035,0.182-0.073,0.271-0.111 c0.815,0.506,1.964,0.387,2.657-0.31l0.817-0.816c0.719-0.72,0.821-1.826,0.307-2.656c0.039-0.09,0.077-0.18,0.112-0.271 C34.29,22.95,35,22.095,35,21.077z M33,21.077c0,0.085-0.069,0.153-0.154,0.153h-1.001l-0.206,0.728 c-0.115,0.405-0.273,0.791-0.472,1.146l-0.37,0.66l0.707,0.707c0.06,0.06,0.06,0.158,0,0.218l-0.816,0.815 c-0.074,0.074-0.14,0.076-0.219-0.002L29.763,24.8l-0.658,0.367c-0.357,0.199-0.743,0.358-1.146,0.473l-0.728,0.206v1 c0,0.085-0.069,0.154-0.154,0.154h-1.154c-0.085,0-0.154-0.069-0.154-0.154v-1l-0.728-0.206c-0.403-0.114-0.789-0.273-1.146-0.473 L23.237,24.8l-0.708,0.704c-0.074,0.074-0.142,0.074-0.217,0l-0.815-0.814c-0.061-0.061-0.061-0.159-0.001-0.219l0.707-0.707 l-0.37-0.66c-0.198-0.354-0.357-0.74-0.472-1.146l-0.206-0.728h-1.001c-0.085,0-0.154-0.068-0.154-0.153v-1.154 c0-0.085,0.069-0.153,0.154-0.153h1.001l0.206-0.728c0.115-0.405,0.273-0.791,0.472-1.146l0.37-0.66l-0.707-0.707 c-0.06-0.06-0.06-0.158,0-0.218l0.816-0.815c0.074-0.074,0.14-0.076,0.219,0.002l0.706,0.702l0.658-0.367 c0.358-0.199,0.744-0.358,1.146-0.473l0.728-0.206v-1c0-0.085,0.069-0.154,0.154-0.154h1.154c0.085,0,0.154,0.069,0.154,0.154v1 l0.728,0.206c0.402,0.114,0.788,0.273,1.146,0.473l0.658,0.367l0.708-0.704c0.074-0.074,0.142-0.074,0.217,0l0.815,0.814 c0.061,0.061,0.061,0.159,0.001,0.219l-0.707,0.707l0.37,0.66c0.198,0.354,0.357,0.74,0.472,1.146l0.206,0.728h1.001 c0.085,0,0.154,0.068,0.154,0.153V21.077z"/></svg>