<svg xmlns="http://www.w3.org/2000/svg"  viewBox="0 0 64 64" width="64px" height="64px"><linearGradient id="SjNitKxEdB3sSpxNEk6S_a" x1="32" x2="32" y1="50.167" y2="32.821" gradientTransform="rotate(180 32 33)" gradientUnits="userSpaceOnUse" spreadMethod="reflect"><stop offset="0" stop-color="#6dc7ff"/><stop offset="1" stop-color="#e6abff"/></linearGradient><path fill="url(#SjNitKxEdB3sSpxNEk6S_a)" d="M37,15v13c0,2.761-2.239,5-5,5s-5-2.239-5-5v-2V15H37z"/><linearGradient id="SjNitKxEdB3sSpxNEk6S_b" x1="52" x2="52" y1="50.167" y2="32.821" gradientTransform="rotate(180 32 33)" gradientUnits="userSpaceOnUse" spreadMethod="reflect"><stop offset="0" stop-color="#6dc7ff"/><stop offset="1" stop-color="#e6abff"/></linearGradient><path fill="url(#SjNitKxEdB3sSpxNEk6S_b)" d="M17,15h-2.425c-1.568,0-2.992,0.917-3.641,2.344l-3.217,7.077C7.245,25.461,7,26.591,7,27.733 v0.052c0,2.419,1.618,4.653,3.992,5.116C14.195,33.527,17,31.091,17,28V15z"/><linearGradient id="SjNitKxEdB3sSpxNEk6S_c" x1="12" x2="12" y1="50.167" y2="32.821" gradientTransform="rotate(180 32 33)" gradientUnits="userSpaceOnUse" spreadMethod="reflect"><stop offset="0" stop-color="#6dc7ff"/><stop offset="1" stop-color="#e6abff"/></linearGradient><path fill="url(#SjNitKxEdB3sSpxNEk6S_c)" d="M47,28c0,2.923,2.509,5.261,5.491,4.977c2.6-0.248,4.509-2.58,4.509-5.191v-0.052 c0-1.143-0.245-2.272-0.717-3.313l-3.217-7.077C52.417,15.917,50.993,15,49.425,15H47V28z"/><linearGradient id="SjNitKxEdB3sSpxNEk6S_d" x1="25" x2="25" y1="52" y2="7.439" gradientTransform="rotate(180 32 33)" gradientUnits="userSpaceOnUse" spreadMethod="reflect"><stop offset="0" stop-color="#1a6dff"/><stop offset="1" stop-color="#c822ff"/></linearGradient><path fill="url(#SjNitKxEdB3sSpxNEk6S_d)" d="M38 48H40V52H38z"/><linearGradient id="SjNitKxEdB3sSpxNEk6S_e" x1="41" x2="41" y1="52" y2="7.439" gradientTransform="rotate(180 32 33)" gradientUnits="userSpaceOnUse" spreadMethod="reflect"><stop offset="0" stop-color="#1a6dff"/><stop offset="1" stop-color="#c822ff"/></linearGradient><path fill="url(#SjNitKxEdB3sSpxNEk6S_e)" d="M32,48v-8c0-1.103-0.897-2-2-2H16c-1.103,0-2,0.897-2,2v8c0,1.103,0.897,2,2,2h14 C31.103,50,32,49.103,32,48z M30,48H16v-8h14V48z"/><linearGradient id="SjNitKxEdB3sSpxNEk6S_f" x1="32" x2="32" y1="52" y2="7.439" gradientTransform="rotate(180 32 33)" gradientUnits="userSpaceOnUse" spreadMethod="reflect"><stop offset="0" stop-color="#1a6dff"/><stop offset="1" stop-color="#c822ff"/></linearGradient><path fill="url(#SjNitKxEdB3sSpxNEk6S_f)" d="M10.184,56H6v2h7h21h12h5h7v-2h-4.184C53.928,55.686,54,55.352,54,55V33.642 c2.328-0.858,4-3.192,4-5.857c0-1.347-0.271-2.6-0.807-3.777l-3.217-7.077C53.167,15.15,51.381,14,49.425,14H47h-1h-8H26h-8h-1 h-2.425c-1.956,0-3.742,1.15-4.55,2.931l-3.217,7.076C6.271,25.184,6,26.437,6,27.733c0,2.739,1.643,5.076,4,5.914V52v2v1 C10,55.352,10.072,55.686,10.184,56z M36,40h8v2h-8V40z M34,40v12H12V33.999c1.388-0.003,2.732-0.475,3.812-1.365 c0.467-0.385,0.861-0.836,1.187-1.327C18.074,32.928,19.913,34,22,34c2.086,0,3.925-1.07,5-2.69c1.075,1.619,2.914,2.69,5,2.69 c2.086,0,3.925-1.07,5-2.69c1.075,1.619,2.914,2.69,5,2.69c2.088,0,3.927-1.073,5.003-2.694c0.272,0.412,0.59,0.797,0.962,1.135 c1.103,1.002,2.548,1.554,4.035,1.557V52h-6V40c0-1.103-0.897-2-2-2h-8C34.897,38,34,38.897,34,40z M12.645,16H16l0,11.864 c0,1.069-0.363,2.132-1.108,2.9c-0.982,1.013-2.325,1.428-3.708,1.155C9.339,31.559,8,29.82,8,27.785 c0-1.059,0.211-2.034,0.628-2.949L12.645,16z M26,16v12c0,2.206-1.794,4-4,4s-4-1.794-4-4V16H26z M28,16h8v12c0,2.206-1.794,4-4,4 s-4-1.794-4-4V16z M46,16v12c0,2.206-1.794,4-4,4c-2.206,0-4-1.794-4-4V16H46z M52.397,31.982c-1.307,0.12-2.545-0.363-3.424-1.364 C48.313,29.867,48,28.869,48,27.869L48,16h3.356l4.016,8.836C55.789,25.751,56,26.725,56,27.733 C56,29.945,54.417,31.788,52.397,31.982z M46,56v-2h6v1c0,0.552-0.448,1-1,1H46z M36,56V44h8v12H36z M13,56c-0.552,0-1-0.448-1-1v-1 h22v2H13z"/><linearGradient id="SjNitKxEdB3sSpxNEk6S_g" x1="16" x2="16" y1="56.167" y2="53.625" gradientTransform="matrix(1 0 0 -1 0 66)" gradientUnits="userSpaceOnUse" spreadMethod="reflect"><stop offset="0" stop-color="#6dc7ff"/><stop offset="1" stop-color="#e6abff"/></linearGradient><path fill="url(#SjNitKxEdB3sSpxNEk6S_g)" d="M14 10H18V12H14z"/><linearGradient id="SjNitKxEdB3sSpxNEk6S_h" x1="22" x2="22" y1="56.167" y2="53.625" gradientTransform="matrix(1 0 0 -1 0 66)" gradientUnits="userSpaceOnUse" spreadMethod="reflect"><stop offset="0" stop-color="#6dc7ff"/><stop offset="1" stop-color="#e6abff"/></linearGradient><path fill="url(#SjNitKxEdB3sSpxNEk6S_h)" d="M20 10H24V12H20z"/><linearGradient id="SjNitKxEdB3sSpxNEk6S_i" x1="28" x2="28" y1="56.167" y2="53.625" gradientTransform="matrix(1 0 0 -1 0 66)" gradientUnits="userSpaceOnUse" spreadMethod="reflect"><stop offset="0" stop-color="#6dc7ff"/><stop offset="1" stop-color="#e6abff"/></linearGradient><path fill="url(#SjNitKxEdB3sSpxNEk6S_i)" d="M26 10H30V12H26z"/><linearGradient id="SjNitKxEdB3sSpxNEk6S_j" x1="32" x2="32" y1="18.826" y2="4.634" gradientUnits="userSpaceOnUse" spreadMethod="reflect"><stop offset="0" stop-color="#1a6dff"/><stop offset="1" stop-color="#c822ff"/></linearGradient><path fill="url(#SjNitKxEdB3sSpxNEk6S_j)" d="M12,16h40l2,2.75V9c0-1.654-1.346-3-3-3H13c-1.654,0-3,1.346-3,3v9.75L12,16z M46,8h5 c0.552,0,1,0.448,1,1v5h-6V8z M12,9c0-0.552,0.448-1,1-1h31v6H12V9z"/></svg>